<?xml version="1.0" standalone="no"?>
<!DOCTYPE svg PUBLIC "-//W3C//DTD SVG 20010904//EN"
 "http://www.w3.org/TR/2001/REC-SVG-20010904/DTD/svg10.dtd">
<svg version="1.0" xmlns="http://www.w3.org/2000/svg"
 width="1312.000000pt" height="1296.000000pt" viewBox="0 0 1312.000000 1296.000000"
 preserveAspectRatio="xMidYMid meet">
<metadata>
Created by potrace 1.16, written by Peter Selinger 2001-2019
</metadata>
<g transform="translate(0.000000,1296.000000) scale(0.100000,-0.100000)"
fill="#000000" stroke="none">
<path d="M0 12944 c0 -8 5 -12 10 -9 6 3 10 10 10 16 0 5 -4 9 -10 9 -5 0 -10
-7 -10 -16z"/>
<path d="M1400 12945 c0 -8 -20 -64 -44 -123 -24 -59 -71 -172 -103 -252 -33
-80 -65 -161 -70 -180 -22 -73 -45 -189 -40 -202 4 -8 6 -7 6 5 1 9 6 17 11
17 6 0 10 6 10 13 0 16 66 220 85 262 7 17 29 71 50 120 20 50 42 104 50 120
19 42 85 218 85 228 0 4 -9 7 -20 7 -11 0 -20 -7 -20 -15z"/>
<path d="M1570 12945 c0 -9 -34 -84 -75 -168 -41 -85 -75 -157 -75 -161 0 -4
-10 -28 -21 -54 -12 -26 -30 -65 -40 -88 -10 -22 -24 -58 -33 -80 -60 -161
-80 -219 -131 -369 -32 -93 -77 -226 -101 -295 -24 -69 -43 -134 -43 -145 -1
-12 -5 -25 -9 -30 -5 -6 -14 -37 -21 -70 -7 -33 -20 -80 -28 -105 -36 -106
-75 -280 -133 -590 -10 -58 -26 -127 -35 -155 -15 -49 -50 -217 -59 -285 -3
-19 -21 -107 -40 -195 -19 -88 -37 -178 -40 -200 -2 -22 -11 -68 -20 -101 -8
-34 -17 -77 -19 -95 -2 -19 -7 -41 -9 -49 -16 -45 -25 -146 -14 -159 15 -19
14 -214 -2 -381 -15 -153 -50 -359 -64 -376 -5 -7 -8 -16 -7 -20 3 -10 -13
-73 -37 -149 -9 -27 -22 -76 -30 -108 -8 -31 -29 -103 -48 -160 -46 -138 -86
-302 -102 -417 -7 -52 -15 -108 -18 -125 -26 -134 -36 -178 -51 -230 -37 -129
-120 -511 -130 -600 -11 -101 -12 -109 -18 -150 -19 -120 -22 -223 -22 -670 0
-467 4 -582 25 -740 5 -38 12 -95 15 -125 16 -154 28 -233 62 -395 29 -142 70
-312 79 -326 3 -6 12 -32 20 -57 37 -132 121 -324 170 -389 13 -17 24 -34 24
-37 0 -14 117 -125 137 -131 35 -10 28 16 -14 56 -63 59 -91 95 -143 186 -67
117 -150 337 -180 478 -7 33 -17 64 -22 69 -4 6 -8 22 -8 36 0 15 -9 61 -20
103 -21 84 -51 263 -56 342 -2 28 -8 82 -14 120 -36 259 -45 439 -44 875 1
306 10 485 33 660 29 217 53 370 66 405 7 22 19 66 26 97 10 46 15 56 25 47
19 -16 28 10 15 43 -7 18 -6 31 3 44 7 11 21 64 30 119 10 55 24 132 31 170 8
39 17 104 20 145 3 41 10 89 16 105 5 17 23 82 40 145 16 63 39 138 49 165 11
28 30 93 44 145 14 52 34 127 46 165 11 39 27 98 35 133 8 34 16 66 19 71 3 4
17 111 32 237 21 187 24 247 18 329 -11 133 -8 189 16 320 12 61 30 155 40
210 46 247 93 473 130 630 22 94 49 222 60 285 41 222 59 297 161 660 25 87
76 246 89 275 23 52 71 191 103 295 59 194 145 402 286 691 33 69 61 129 61
132 0 4 -11 7 -25 7 -16 0 -25 -6 -25 -15z"/>
<path d="M2305 12833 c-12 -183 -12 -313 0 -313 10 -1 29 149 41 333 7 103 6
107 -13 107 -18 0 -21 -9 -28 -127z"/>
<path d="M2510 12942 c0 -10 -4 -22 -9 -27 -4 -6 -18 -48 -31 -95 -12 -47 -38
-134 -57 -193 -34 -105 -36 -127 -14 -112 17 10 38 65 88 230 65 217 65 215
42 215 -12 0 -19 -7 -19 -18z"/>
<path d="M3170 12953 c0 -4 9 -16 20 -28 11 -11 43 -51 72 -90 28 -38 58 -74
65 -78 7 -4 13 -12 13 -17 0 -5 20 -31 44 -57 38 -40 46 -45 52 -30 8 21 -5
41 -91 144 -36 43 -78 97 -93 120 -21 33 -33 42 -54 43 -16 0 -28 -3 -28 -7z"/>
<path d="M3770 12953 c0 -22 290 -315 407 -413 184 -154 247 -198 258 -180 7
12 -28 47 -136 130 -46 36 -110 90 -144 120 -91 83 -335 332 -335 342 0 4 -11
8 -25 8 -14 0 -25 -3 -25 -7z"/>
<path d="M7510 12950 c0 -11 10 -24 43 -61 9 -10 17 -22 17 -25 0 -3 14 -23
30 -44 17 -21 30 -43 30 -49 0 -6 5 -11 10 -11 6 0 15 -11 20 -25 5 -14 14
-25 20 -25 5 0 10 -5 10 -11 0 -7 19 -35 43 -63 24 -28 46 -59 50 -68 3 -10
11 -18 17 -18 5 0 10 -4 10 -9 0 -6 14 -25 30 -43 17 -18 30 -38 30 -45 0 -7
5 -13 10 -13 6 0 15 -11 20 -25 5 -14 14 -25 20 -25 5 0 10 -4 10 -10 0 -10 9
-22 62 -83 15 -18 28 -37 28 -43 0 -7 7 -14 15 -18 8 -3 15 -10 15 -15 0 -5
14 -25 30 -43 17 -18 30 -38 30 -45 0 -7 5 -13 10 -13 6 0 10 -5 10 -11 0 -6
19 -36 43 -67 24 -31 46 -65 50 -74 3 -10 11 -18 17 -18 5 0 10 -6 10 -14 0
-7 6 -19 14 -25 8 -7 22 -27 31 -46 9 -19 20 -35 25 -35 6 0 10 -5 10 -10 0
-6 18 -35 40 -65 22 -30 40 -57 40 -61 0 -4 11 -22 25 -40 14 -18 25 -35 25
-39 0 -3 18 -30 40 -60 22 -30 40 -59 40 -65 0 -5 4 -10 10 -10 5 0 16 -16 25
-35 9 -19 23 -39 31 -46 8 -6 14 -17 14 -24 0 -7 6 -18 13 -24 8 -6 25 -32 38
-58 13 -27 26 -50 30 -53 3 -3 21 -32 39 -65 18 -33 36 -65 41 -71 17 -21 160
-301 214 -416 14 -32 31 -58 36 -58 5 0 9 3 9 7 0 23 -72 195 -120 288 -98
189 -153 289 -167 306 -7 8 -13 19 -13 23 0 4 -21 40 -47 79 -27 40 -50 77
-52 82 -2 6 -21 35 -41 65 -20 30 -65 98 -99 150 -35 52 -80 119 -100 148 -20
28 -41 60 -46 70 -11 18 -94 140 -107 157 -13 16 -111 158 -132 190 -11 17
-24 35 -30 41 -6 7 -27 33 -46 58 -19 25 -57 74 -84 108 -26 34 -55 74 -64 88
-9 14 -33 45 -53 70 -20 25 -49 63 -65 86 -78 110 -206 274 -214 274 -5 0 -12
9 -15 20 -7 21 -35 28 -35 10z"/>
<path d="M8490 12955 c0 -3 23 -34 50 -69 28 -35 50 -68 50 -74 0 -5 7 -12 15
-16 8 -3 15 -10 15 -16 0 -6 18 -35 40 -64 22 -29 40 -58 40 -63 0 -6 7 -13
15 -17 8 -3 15 -12 15 -21 0 -8 4 -15 8 -15 10 0 82 -96 82 -110 0 -6 7 -13
15 -16 8 -4 15 -10 15 -15 0 -6 4 -15 10 -22 5 -7 46 -61 91 -122 46 -60 85
-112 89 -115 3 -3 13 -17 22 -31 33 -52 140 -169 154 -169 19 0 8 21 -40 75
-20 22 -53 64 -73 93 -21 30 -61 84 -88 120 -28 37 -77 105 -110 152 -32 47
-82 114 -109 150 -44 57 -161 223 -234 333 -17 25 -33 37 -49 37 -13 0 -23 -2
-23 -5z"/>
<path d="M8645 12938 c4 -13 16 -36 28 -53 12 -16 46 -66 75 -110 30 -44 67
-96 83 -116 16 -20 29 -40 29 -43 0 -4 18 -31 40 -60 22 -29 40 -56 40 -60 0
-3 25 -40 55 -81 30 -40 55 -77 55 -80 0 -4 11 -21 25 -39 14 -18 25 -36 25
-39 0 -4 20 -37 44 -74 71 -111 106 -179 96 -189 -5 -5 9 -28 35 -57 25 -26
51 -61 60 -77 9 -17 20 -30 25 -30 6 0 10 -5 10 -11 0 -6 20 -34 45 -62 25
-29 45 -57 45 -64 0 -7 5 -13 10 -13 6 0 13 -7 17 -16 3 -9 19 -30 34 -47 16
-17 29 -37 29 -43 0 -7 7 -14 15 -18 8 -3 15 -10 15 -16 0 -6 18 -35 40 -65
22 -30 40 -58 40 -64 0 -5 7 -11 15 -15 8 -3 15 -12 15 -19 0 -8 6 -20 14 -26
8 -7 22 -27 31 -46 9 -19 20 -35 25 -35 6 0 10 -5 10 -10 0 -6 18 -35 40 -65
22 -30 40 -58 40 -63 0 -5 6 -15 14 -21 8 -7 22 -27 31 -46 9 -19 20 -35 25
-35 6 0 10 -5 10 -10 0 -6 18 -35 40 -65 22 -30 40 -57 40 -61 0 -4 11 -22 25
-40 14 -18 25 -36 25 -40 0 -4 6 -15 14 -23 7 -9 24 -36 37 -61 13 -25 27 -47
30 -50 3 -3 23 -36 44 -75 21 -38 42 -76 48 -83 5 -7 24 -41 42 -75 17 -34 46
-89 63 -122 18 -33 32 -65 32 -72 0 -7 4 -13 8 -13 11 0 72 -124 72 -145 0 -8
4 -15 9 -15 5 0 14 -15 21 -32 7 -18 18 -46 25 -63 57 -133 110 -293 120 -365
2 -14 16 -77 30 -140 15 -63 28 -146 30 -185 1 -38 12 -109 24 -157 22 -84 29
-124 30 -160 1 -10 7 -18 15 -18 24 0 34 -23 66 -146 18 -65 42 -155 55 -199
39 -138 58 -253 70 -430 3 -55 11 -131 16 -170 10 -66 13 -381 5 -435 -14 -97
-38 -192 -61 -245 -45 -102 -67 -145 -75 -150 -5 -3 -25 -29 -44 -58 -19 -29
-51 -67 -70 -86 -42 -41 -50 -37 -100 53 -19 34 -46 74 -60 89 -39 42 -35 80
10 111 126 86 249 359 273 610 5 50 8 199 7 331 -2 206 -5 248 -21 298 -11 31
-24 56 -30 54 -11 -4 -11 -8 5 -81 29 -139 29 -545 0 -651 -4 -16 -13 -59 -20
-95 -6 -36 -16 -74 -21 -85 -4 -11 -18 -45 -29 -75 -33 -85 -76 -166 -121
-226 -67 -88 -75 -67 -34 81 35 124 63 303 75 475 5 80 14 168 19 195 37 205
53 315 59 410 6 89 10 110 22 109 13 -1 15 21 15 143 0 108 -3 143 -12 143 -7
0 -13 -3 -14 -7 0 -5 -2 -51 -5 -103 -3 -54 -11 -104 -19 -116 -8 -12 -16 -66
-20 -125 -11 -179 -58 -459 -89 -534 -7 -16 -19 -46 -26 -65 -6 -19 -16 -44
-21 -55 -4 -11 -15 -42 -22 -70 -65 -228 -277 -619 -358 -661 -16 -8 -29 -23
-29 -33 0 -19 -83 -96 -160 -148 -110 -74 -287 -173 -310 -173 -6 0 9 24 34
54 90 111 126 169 202 326 92 191 87 183 142 202 64 21 106 49 189 129 141
134 227 280 262 444 33 162 38 405 12 650 -6 50 -13 117 -16 150 -17 168 -134
555 -167 555 -13 0 -4 -96 10 -114 5 -6 17 -33 27 -61 10 -27 23 -64 31 -81 7
-17 16 -48 18 -70 3 -22 12 -69 20 -104 8 -36 17 -96 20 -135 4 -38 12 -99 18
-135 17 -97 15 -615 -2 -615 -1 0 -3 -12 -5 -26 -18 -136 -106 -280 -267 -440
-64 -65 -173 -137 -185 -125 -4 3 0 32 7 63 7 32 18 99 26 148 7 50 19 122 28
161 8 40 17 105 20 145 3 41 10 106 16 144 5 39 7 137 3 222 -6 163 7 350 35
493 32 162 21 430 -35 825 -8 61 -17 130 -20 155 -2 25 -12 72 -22 105 -10 33
-24 89 -30 125 -7 36 -17 74 -21 85 -5 11 -11 31 -13 45 -3 14 -15 61 -27 105
-12 44 -34 127 -50 185 -32 123 -76 265 -90 298 -5 12 -14 32 -18 45 -50 135
-210 403 -349 584 -76 99 -301 333 -320 333 -30 0 -7 -32 97 -138 61 -62 110
-117 110 -122 0 -6 4 -10 8 -10 11 0 112 -135 112 -149 0 -6 4 -11 9 -11 10 0
100 -132 137 -200 10 -19 24 -42 31 -50 23 -30 110 -206 132 -270 13 -36 27
-74 32 -85 11 -23 42 -128 69 -230 10 -38 35 -133 55 -210 96 -368 128 -527
151 -760 2 -27 9 -86 14 -130 22 -167 17 -509 -6 -547 -5 -8 -12 -3 -21 17
-14 29 -14 29 -7 -15 7 -45 6 -168 0 -225 -2 -16 -7 -59 -11 -95 -4 -36 -16
-81 -27 -100 -11 -19 -33 -70 -49 -114 -41 -111 -115 -259 -155 -309 -51 -64
-44 -105 8 -49 60 63 148 239 183 364 16 55 41 95 53 83 6 -6 4 -217 -2 -255
-3 -14 -14 -96 -26 -182 -11 -86 -30 -187 -41 -225 -11 -37 -21 -74 -21 -80
-1 -7 -10 -15 -20 -19 -10 -3 -18 -9 -18 -14 0 -5 -33 -42 -73 -82 -112 -112
-224 -159 -392 -164 -49 -1 -94 -3 -100 -3 -21 -3 22 -21 73 -32 45 -9 67 -7
144 10 149 35 272 109 339 207 37 55 64 60 55 10 -10 -53 -53 -155 -81 -192
-15 -19 -43 -43 -63 -54 -20 -10 -51 -31 -67 -47 -92 -85 -255 -202 -343 -247
-42 -21 -172 -67 -342 -121 -75 -23 -195 -32 -215 -15 -14 12 -13 17 13 44 59
65 112 144 142 213 28 67 63 192 58 210 -5 21 18 109 57 218 69 193 113 379
152 640 26 179 26 601 -1 860 -11 107 -38 271 -47 280 -5 5 -9 18 -9 30 -1 27
-35 129 -57 165 -23 40 -49 50 -29 11 19 -35 72 -248 81 -321 3 -30 13 -93 20
-140 23 -145 33 -504 20 -705 -6 -89 -11 -131 -25 -220 -6 -33 -14 -91 -20
-130 -5 -38 -21 -113 -35 -165 -14 -52 -30 -115 -36 -140 -6 -25 -14 -54 -19
-65 -31 -76 -50 -127 -65 -175 -10 -30 -30 -69 -44 -86 -14 -17 -55 -69 -91
-115 -115 -148 -283 -304 -375 -349 -153 -74 -301 -141 -323 -147 -33 -8 -33
-9 67 206 45 96 81 181 81 188 0 7 9 32 19 56 58 129 134 430 176 697 9 58 20
129 26 159 16 92 12 166 -11 192 -23 28 -22 34 -25 -106 -1 -49 -8 -122 -14
-162 -7 -40 -14 -83 -16 -95 -2 -13 -9 -50 -15 -83 -6 -33 -13 -76 -16 -95
-20 -131 -137 -508 -202 -650 -48 -105 -122 -277 -122 -285 0 -4 -19 -29 -41
-57 -32 -37 -60 -57 -120 -84 -43 -20 -80 -42 -83 -50 -8 -21 18 -17 80 11 89
41 91 37 34 -58 -76 -126 -128 -193 -222 -282 -154 -149 -316 -245 -528 -314
-52 -17 -110 -36 -129 -42 -29 -10 -36 -9 -46 5 -11 14 -18 10 -56 -35 -24
-29 -55 -68 -68 -88 -14 -20 -27 -38 -31 -41 -3 -3 -33 -39 -65 -80 -158 -202
-364 -366 -575 -458 -25 -11 -77 -34 -117 -51 -40 -17 -87 -34 -105 -37 -18
-4 -57 -13 -87 -21 -59 -17 -105 -14 -263 17 -88 18 -201 49 -253 70 -11 4
-52 20 -91 34 -72 27 -202 107 -276 170 -41 35 -68 46 -68 26 0 -5 21 -26 47
-47 25 -21 65 -54 87 -73 45 -39 216 -126 286 -145 14 -3 34 -10 45 -15 80
-34 298 -80 383 -80 27 0 42 -4 42 -13 0 -7 -27 -39 -60 -72 -62 -61 -131
-146 -229 -280 l-58 -80 -154 2 c-85 1 -172 7 -194 13 -22 7 -57 17 -79 23
-21 6 -73 31 -115 55 -42 24 -105 60 -141 79 -36 20 -74 44 -85 53 -18 16 -75
52 -235 150 -30 19 -73 43 -95 54 -22 10 -77 41 -123 68 -45 26 -85 48 -88 48
-7 0 -240 176 -262 198 -11 11 -75 62 -143 113 -230 173 -313 241 -467 377
-143 126 -165 150 -312 346 -87 116 -167 222 -178 236 -123 152 -171 229 -309
500 -43 85 -91 173 -105 195 -14 22 -37 64 -52 93 -27 53 -42 64 -52 37 -7
-18 37 -110 83 -176 18 -26 33 -53 33 -61 0 -8 4 -18 9 -23 24 -25 111 -198
111 -219 0 -9 4 -16 9 -16 5 0 15 -15 22 -32 7 -18 30 -59 51 -90 21 -31 38
-62 38 -67 0 -6 6 -14 13 -18 17 -11 72 -83 80 -105 4 -10 11 -18 17 -18 5 0
10 -7 10 -15 0 -8 4 -15 9 -15 4 0 28 -27 52 -60 24 -33 47 -60 51 -60 5 0 8
-5 8 -10 0 -6 27 -46 60 -89 33 -43 60 -84 60 -89 0 -6 6 -15 13 -19 7 -4 28
-28 47 -53 43 -56 96 -108 271 -261 53 -46 109 -93 124 -104 37 -26 149 -115
155 -123 3 -4 12 -11 21 -17 31 -18 151 -109 212 -160 84 -70 287 -221 317
-237 14 -7 95 -53 180 -102 85 -48 175 -100 200 -114 50 -28 95 -58 125 -83
11 -10 46 -31 78 -47 31 -17 63 -34 70 -40 27 -23 225 -120 267 -131 25 -7 59
-16 75 -21 29 -8 54 -8 204 5 53 5 76 4 81 -5 8 -12 -18 -66 -87 -180 -18 -30
-33 -58 -33 -63 0 -4 -13 -25 -29 -47 -15 -21 -34 -54 -41 -72 -8 -18 -26 -51
-40 -73 -15 -22 -36 -58 -47 -80 -11 -22 -30 -58 -41 -80 -12 -22 -40 -80 -62
-130 -22 -49 -45 -98 -50 -107 -6 -10 -10 -23 -10 -29 0 -6 -13 -30 -30 -54
-16 -24 -30 -46 -30 -49 0 -7 -79 -139 -137 -228 -23 -37 -43 -70 -43 -73 0
-12 -215 -327 -324 -476 -79 -108 -94 -127 -223 -294 -43 -55 -132 -175 -197
-265 -189 -260 -225 -308 -316 -418 -47 -57 -100 -122 -118 -145 -92 -115
-370 -406 -772 -807 -227 -226 -279 -273 -355 -319 -50 -30 -121 -77 -160
-106 -103 -75 -419 -265 -441 -265 -11 0 -153 -101 -182 -130 -84 -83 -86
-127 -2 -46 63 60 171 131 395 256 17 10 53 31 82 48 28 17 54 28 57 24 3 -3
-57 -66 -134 -140 -120 -114 -190 -198 -190 -225 0 -4 9 -7 20 -7 13 0 26 13
39 38 11 22 99 114 198 209 192 184 207 198 398 348 92 73 224 200 483 465
338 344 411 420 493 514 19 21 39 44 45 50 64 67 294 356 374 471 66 94 221
304 293 394 72 92 114 148 204 272 12 17 33 45 47 62 44 57 136 188 136 195 0
4 10 18 21 32 28 35 139 199 139 206 0 3 13 24 29 47 95 139 228 370 276 482
10 22 33 73 51 113 19 40 34 75 34 78 0 3 8 18 18 32 11 15 35 56 54 92 90
165 141 257 157 280 9 14 23 39 31 55 63 128 241 380 365 514 21 23 46 54 55
69 14 22 37 34 114 60 92 31 226 86 326 134 25 12 90 51 145 87 126 82 316
270 439 434 48 64 92 120 97 123 6 3 45 14 88 24 294 70 526 203 734 418 37
38 67 72 67 76 0 3 23 44 51 91 28 47 55 100 61 118 21 63 27 65 171 66 121 1
201 11 252 32 11 4 38 13 60 20 22 6 60 22 85 35 55 30 64 30 83 2 18 -27 77
-89 99 -103 8 -5 33 -22 54 -36 110 -73 320 -166 436 -193 122 -28 244 -35
354 -20 l50 6 150 -99 c181 -120 253 -170 279 -193 11 -10 30 -21 41 -24 12
-4 29 -15 39 -26 10 -11 22 -20 26 -20 9 0 240 -142 279 -171 14 -11 34 -24
45 -29 23 -11 138 -87 325 -215 73 -49 140 -94 149 -100 38 -23 196 -129 201
-135 3 -4 55 -40 115 -80 61 -41 112 -77 115 -80 3 -3 55 -39 115 -79 112 -75
217 -157 313 -243 52 -47 75 -57 86 -39 8 12 -316 285 -359 302 -6 2 -48 31
-93 64 -46 33 -91 64 -100 70 -10 5 -53 35 -97 66 -44 31 -177 121 -295 200
-118 79 -237 161 -265 181 -27 21 -54 38 -58 38 -5 0 -62 36 -128 80 -65 44
-121 80 -124 80 -11 0 -384 246 -460 302 -27 21 -54 38 -58 38 -5 0 -23 11
-40 24 -18 13 -60 41 -95 61 -34 20 -60 40 -57 45 4 7 99 60 208 118 27 14 33
12 120 -31 51 -25 139 -68 196 -96 57 -28 109 -55 115 -59 20 -16 149 -44 281
-62 126 -17 208 -31 233 -41 13 -5 32 -9 43 -9 10 0 27 -4 37 -9 9 -5 58 -22
107 -39 50 -16 149 -51 220 -76 72 -26 150 -54 175 -62 25 -9 96 -36 158 -60
115 -45 142 -52 142 -34 0 14 -52 44 -103 60 -23 7 -60 21 -83 31 -22 9 -87
33 -145 53 -226 76 -221 74 -273 129 -26 29 -83 95 -124 147 -42 52 -85 104
-95 115 -39 42 -186 243 -227 310 -23 39 -60 93 -82 121 l-39 52 73 74 c40 41
80 88 88 104 8 16 26 47 40 69 74 112 119 308 121 517 0 105 -8 278 -16 333
-3 17 -7 64 -10 105 -12 167 -37 327 -71 445 -7 28 -28 100 -44 160 -17 61
-43 144 -59 185 -35 92 -46 132 -66 235 -8 44 -29 150 -46 235 -17 85 -33 174
-35 198 -11 95 -139 435 -220 587 -9 17 -44 84 -79 150 -34 66 -71 136 -82
155 -11 19 -35 62 -54 95 -18 33 -50 87 -71 120 -21 33 -42 70 -48 83 -5 12
-13 22 -17 22 -5 0 -14 15 -22 33 -8 17 -17 34 -21 37 -3 3 -21 30 -39 60 -19
30 -36 57 -40 60 -10 8 -71 98 -71 105 0 3 -5 11 -10 18 -18 20 -100 136 -100
141 0 14 -352 511 -380 536 -11 11 -150 216 -150 223 0 2 -25 44 -55 93 -30
49 -59 98 -64 109 -11 24 -201 309 -281 420 -32 44 -80 112 -106 151 -54 78
-99 134 -109 134 -4 0 -3 -10 0 -22z m1970 -5068 c-8 -103 -21 -183 -56 -330
-16 -69 -33 -147 -39 -175 -28 -131 -118 -355 -143 -355 -15 0 -157 141 -157
156 0 6 9 19 20 29 94 85 254 415 335 689 32 107 48 101 40 -14z m-1547 -603
c-42 -187 -240 -468 -311 -441 -17 6 -77 78 -77 92 0 5 21 27 48 48 92 74 185
170 259 268 79 102 99 111 81 33z m832 -7 c0 -9 -76 -145 -135 -244 -17 -26
-45 -65 -63 -85 -18 -20 -39 -47 -48 -61 -34 -55 -200 -144 -291 -156 -33 -4
-80 0 -133 10 -85 18 -196 64 -194 81 0 6 57 25 125 43 68 18 138 37 154 41
70 19 205 87 304 154 68 46 218 178 249 220 13 17 32 15 32 -3z m635 -100 c3
-11 12 -26 18 -33 7 -6 30 -38 51 -71 42 -62 42 -79 -2 -102 -12 -6 -30 -17
-39 -25 -45 -36 -60 -39 -107 -23 -42 14 -46 19 -46 47 0 18 8 46 18 62 10 17
24 46 32 65 39 101 61 125 75 80z m-298 -71 c17 -21 54 -57 82 -79 28 -22 51
-48 51 -58 0 -40 -281 -350 -353 -390 -29 -16 -95 -53 -147 -83 l-95 -54 -139
-3 c-151 -4 -248 9 -351 48 -11 5 -36 14 -55 21 -69 25 -236 112 -295 154 -33
24 -80 64 -105 90 l-45 46 24 20 c41 34 140 19 215 -32 41 -27 95 -48 233 -89
57 -17 145 -8 213 23 368 165 543 264 648 364 36 35 70 63 76 62 6 0 25 -18
43 -40z m444 -161 c10 -13 18 -26 19 -30 0 -5 15 -29 34 -55 18 -27 48 -75 65
-108 18 -33 57 -88 88 -123 31 -35 65 -75 77 -90 11 -15 73 -91 138 -168 65
-78 118 -144 118 -147 0 -8 -89 23 -96 34 -3 5 -17 9 -31 9 -15 0 -59 9 -97
19 -39 11 -116 27 -171 36 -55 8 -129 20 -165 26 -101 16 -167 38 -280 95
-126 63 -237 114 -249 114 -5 0 -14 7 -21 15 -11 13 -2 27 61 93 79 82 174
193 199 231 12 18 21 22 37 17 27 -9 173 -147 173 -164 0 -7 5 -12 11 -12 7 0
21 -10 33 -22 12 -13 53 -50 90 -83 38 -33 112 -103 165 -155 147 -145 211
-198 211 -172 0 11 -235 251 -310 317 -36 32 -111 103 -167 158 -97 95 -102
102 -86 119 9 10 21 18 27 18 7 0 27 11 46 25 44 30 57 31 81 3z m-1991 -79
c22 -23 40 -45 40 -50 0 -13 -73 -48 -159 -75 -127 -41 -382 -65 -381 -35 1
17 19 30 60 41 46 12 337 137 355 152 19 17 46 7 85 -33z"/>
<path d="M7920 12742 c0 -10 108 -133 127 -145 7 -4 13 -12 13 -17 0 -5 16
-25 35 -44 19 -20 35 -40 35 -45 0 -5 4 -11 10 -13 15 -5 120 -131 120 -144 0
-7 7 -14 15 -18 8 -3 15 -10 15 -15 0 -5 14 -25 30 -43 17 -18 30 -38 30 -45
0 -7 5 -13 10 -13 6 0 10 -5 10 -11 0 -6 19 -36 43 -67 24 -31 46 -65 50 -74
3 -10 11 -18 17 -18 5 0 10 -5 10 -12 0 -6 11 -26 25 -44 14 -18 25 -37 25
-42 0 -5 6 -15 13 -21 8 -6 25 -32 38 -58 13 -27 26 -50 30 -53 3 -3 21 -32
39 -65 18 -33 40 -71 49 -85 18 -27 105 -203 143 -290 14 -30 46 -102 73 -160
26 -58 52 -116 58 -130 5 -14 13 -34 18 -45 4 -11 18 -45 29 -75 12 -30 27
-66 32 -80 23 -54 29 -69 73 -180 26 -63 53 -127 61 -142 8 -14 14 -31 14 -38
0 -6 9 -30 20 -52 11 -23 20 -47 20 -52 0 -6 6 -22 13 -36 7 -14 28 -72 46
-130 18 -58 37 -116 43 -130 6 -14 16 -50 24 -80 8 -30 19 -64 24 -75 14 -29
80 -279 95 -360 7 -38 18 -104 25 -145 7 -41 20 -111 30 -155 10 -44 23 -116
30 -160 6 -44 19 -111 27 -148 13 -54 18 -65 26 -52 5 10 7 42 3 74 -4 31 -11
88 -16 126 -4 39 -19 122 -33 185 -13 63 -30 156 -37 205 -7 50 -18 113 -25
140 -34 125 -85 304 -94 326 -5 13 -17 51 -26 84 -38 135 -144 430 -189 530
-17 36 -107 256 -126 305 -7 19 -17 39 -22 44 -4 6 -8 17 -8 25 -1 9 -9 34
-20 56 -11 22 -19 43 -20 48 0 4 -18 45 -40 92 -22 47 -40 88 -40 91 0 4 -49
107 -109 228 -103 209 -243 457 -262 464 -5 2 -9 8 -9 14 0 6 -11 26 -25 44
-14 18 -25 35 -25 38 0 5 -144 209 -173 246 -7 8 -20 27 -29 42 -10 15 -26 35
-36 45 -10 10 -35 41 -57 68 -22 28 -44 55 -50 61 -5 6 -57 61 -114 122 -92
99 -131 130 -131 104z"/>
<path d="M1642 12398 c-23 -38 -43 -82 -70 -153 -11 -27 -41 -99 -67 -160 -26
-60 -59 -144 -73 -185 -14 -41 -33 -93 -42 -115 -9 -22 -27 -76 -39 -120 -13
-44 -27 -89 -32 -100 -24 -59 -106 -340 -133 -458 -13 -56 -40 -158 -59 -227
-49 -176 -88 -341 -82 -351 3 -4 1 -10 -5 -14 -5 -3 -10 -21 -10 -39 0 -18 -4
-57 -9 -87 -40 -231 -72 -446 -86 -579 -7 -67 -6 -608 1 -705 5 -73 16 -97 35
-78 7 7 7 82 -1 261 -6 138 -9 288 -6 334 3 46 8 126 11 178 5 88 33 297 55
415 17 91 29 169 35 215 10 85 79 395 125 555 15 55 36 132 45 170 9 39 23 88
30 110 7 22 22 74 35 115 38 128 181 553 200 595 10 22 44 103 75 180 31 77
63 153 71 169 15 32 30 106 21 106 -3 0 -14 -15 -25 -32z"/>
<path d="M5971 12029 c6 -12 26 -43 44 -68 17 -25 49 -80 70 -121 21 -41 46
-86 55 -100 9 -14 33 -54 52 -90 19 -36 39 -74 45 -85 16 -28 93 -194 93 -200
0 -4 96 -210 111 -237 5 -10 9 -24 9 -32 0 -8 3 -16 8 -18 11 -5 52 -84 52
-102 0 -9 5 -16 10 -16 6 0 10 -6 10 -14 0 -8 9 -31 20 -53 10 -21 40 -87 66
-148 63 -151 67 -158 114 -260 41 -89 105 -270 136 -382 33 -126 74 -293 78
-320 5 -38 24 -112 52 -208 13 -44 26 -93 27 -110 2 -16 9 -46 15 -65 17 -53
40 -167 72 -360 36 -208 65 -338 85 -377 l15 -28 0 41 c0 22 -11 96 -24 165
-13 68 -29 165 -36 214 -7 50 -18 110 -25 135 -7 25 -20 86 -29 135 -10 50
-20 97 -24 105 -3 8 -6 22 -8 30 -1 8 -9 42 -18 75 -9 33 -28 112 -42 175 -35
167 -121 500 -153 600 -10 31 -22 93 -26 139 -4 45 -14 106 -22 134 -8 29 -18
66 -23 82 -5 17 -17 64 -28 105 -22 83 -57 181 -125 345 -77 186 -96 225 -112
225 -19 0 -19 -4 1 -48 9 -21 20 -46 24 -57 9 -24 69 -171 80 -200 41 -100
103 -282 123 -360 3 -11 16 -61 30 -111 32 -116 21 -142 -22 -51 -17 36 -31
69 -31 73 0 4 -9 26 -19 48 -11 23 -42 96 -70 163 -28 67 -78 180 -112 250
-33 70 -81 171 -106 223 -203 424 -236 487 -352 666 -25 38 -51 79 -57 90 -6
10 -19 21 -28 22 -15 3 -16 1 -5 -19z"/>
<path d="M5500 11464 c0 -9 17 -40 38 -68 21 -28 41 -55 43 -61 2 -5 36 -57
74 -113 39 -57 75 -111 80 -121 6 -9 20 -31 33 -48 12 -17 22 -36 22 -42 0 -6
5 -11 10 -11 6 0 10 -6 10 -14 0 -8 14 -30 30 -48 17 -18 30 -38 30 -44 0 -7
4 -14 8 -16 10 -4 92 -135 92 -147 0 -5 4 -11 8 -13 8 -3 72 -95 72 -104 0 -3
11 -20 25 -38 14 -18 25 -36 25 -40 0 -4 16 -32 35 -62 19 -30 35 -57 35 -60
0 -3 11 -20 25 -38 14 -18 25 -37 25 -41 0 -5 6 -16 14 -24 7 -9 24 -36 37
-61 13 -25 34 -59 46 -76 13 -17 23 -34 23 -38 0 -4 16 -32 35 -62 19 -30 35
-59 35 -64 0 -6 3 -10 8 -10 4 0 16 -17 27 -37 10 -21 25 -45 31 -53 7 -8 26
-40 41 -70 16 -30 34 -64 40 -75 20 -35 69 -148 93 -210 12 -33 26 -69 31 -80
4 -11 19 -56 32 -100 14 -44 35 -110 46 -146 12 -36 21 -74 21 -85 0 -11 4
-24 9 -30 12 -12 49 -164 57 -229 5 -47 5 -49 -11 -30 -9 11 -55 97 -103 190
-86 169 -176 302 -283 419 -50 55 -79 70 -79 42 0 -8 16 -32 36 -53 40 -43
124 -149 124 -157 0 -2 13 -19 30 -37 16 -18 43 -57 60 -88 17 -31 46 -83 65
-116 19 -33 46 -85 61 -115 15 -30 37 -68 48 -85 34 -49 45 -74 35 -80 -13 -9
-11 -35 2 -35 16 0 49 -40 49 -59 0 -9 11 -33 25 -53 30 -44 45 -118 24 -118
-32 0 -219 160 -219 187 0 7 18 17 40 23 56 15 60 30 7 30 -44 0 -46 1 -77 57
-36 63 -173 251 -198 271 -23 18 -43 15 -35 -5 6 -18 74 -106 113 -149 11 -12
20 -25 20 -28 0 -4 22 -35 49 -69 56 -70 76 -122 45 -110 -51 18 -163 118
-284 253 -140 156 -265 280 -283 280 -25 0 -15 -15 76 -109 42 -44 77 -85 77
-90 0 -6 7 -11 15 -11 8 0 15 -4 15 -9 0 -4 10 -19 23 -33 12 -13 51 -57 87
-97 36 -40 116 -113 178 -162 62 -49 143 -118 181 -152 38 -34 95 -75 127 -92
86 -45 85 -42 154 -270 21 -72 50 -233 47 -267 -3 -31 0 -38 17 -40 14 -2 24
-15 31 -38 5 -19 13 -39 16 -45 4 -5 12 -30 19 -55 7 -24 21 -63 31 -85 11
-23 21 -56 24 -73 2 -18 9 -55 15 -84 16 -74 10 -532 -7 -550 -7 -6 -13 -22
-13 -35 0 -27 -57 -195 -95 -278 -33 -73 -56 -155 -44 -155 5 0 9 5 9 12 0 6
6 19 14 27 11 13 35 66 107 236 38 92 59 146 59 156 0 6 8 23 19 37 10 15 40
81 65 147 26 66 53 134 61 150 12 26 61 183 85 270 5 17 13 46 19 65 6 19 15
64 20 100 6 36 17 106 25 155 9 50 16 118 16 152 0 34 5 65 10 68 13 8 13 73
1 111 -5 16 -12 76 -15 134 -3 58 -8 121 -10 140 -6 46 -17 180 -22 250 -15
249 -65 631 -104 795 -21 87 -52 228 -69 315 -19 90 -69 249 -113 350 -48 113
-64 140 -83 140 -16 0 -14 -11 16 -77 10 -24 19 -46 19 -50 1 -5 9 -26 20 -48
11 -22 19 -47 20 -55 0 -9 4 -20 8 -25 5 -6 14 -28 20 -50 6 -22 22 -78 36
-125 15 -47 26 -92 26 -101 0 -16 59 -279 65 -289 2 -3 13 -61 24 -130 21
-122 25 -147 36 -240 3 -25 9 -76 14 -115 6 -38 13 -108 16 -155 9 -135 27
-321 44 -469 20 -167 10 -399 -25 -586 -2 -11 -8 -51 -14 -90 -9 -62 -78 -317
-100 -370 -4 -11 -22 -58 -40 -105 -17 -47 -40 -108 -51 -135 -10 -28 -19 -56
-19 -63 0 -6 -3 -12 -7 -12 -9 0 -9 42 1 272 5 110 4 186 -3 220 -14 68 -15
150 -3 213 15 76 5 561 -14 670 -9 49 -20 98 -25 108 -12 21 -33 12 -24 -11 3
-9 8 -48 11 -86 2 -38 7 -72 9 -76 3 -5 7 -100 10 -211 3 -112 8 -259 11 -326
3 -68 1 -123 -4 -123 -30 0 -104 233 -162 510 -6 30 -15 64 -20 75 -4 11 -14
40 -21 65 -8 25 -23 65 -35 90 -12 25 -27 69 -34 99 -7 30 -27 86 -45 125 -33
71 -40 101 -70 291 -16 100 -27 146 -70 285 -13 41 -26 91 -30 110 -3 19 -10
44 -15 55 -4 11 -25 67 -46 125 -47 131 -106 258 -174 375 -29 50 -61 105 -72
123 -10 18 -27 45 -37 60 -26 39 -123 201 -201 337 -9 17 -28 47 -41 67 -20
30 -96 152 -152 242 -7 11 -32 52 -57 90 -24 39 -49 79 -55 88 -5 9 -36 55
-67 102 -32 47 -58 89 -58 95 0 5 -6 14 -12 18 -7 4 -17 16 -23 25 -8 13 -86
131 -147 222 -25 37 -81 101 -94 109 -10 5 -14 3 -14 -9z"/>
<path d="M8104 11330 c4 -24 10 -49 15 -55 4 -5 14 -32 21 -60 7 -27 16 -54
20 -60 4 -5 13 -32 20 -60 7 -27 16 -54 20 -60 4 -5 10 -23 14 -40 4 -16 13
-43 20 -60 8 -16 25 -68 40 -115 15 -47 33 -101 41 -120 17 -45 40 -116 66
-205 33 -114 40 -139 43 -161 2 -11 6 -26 10 -32 4 -6 15 -42 25 -79 10 -37
39 -138 63 -223 25 -85 51 -182 58 -215 7 -33 16 -64 20 -70 4 -5 12 -37 18
-70 11 -60 31 -160 57 -290 8 -38 26 -136 41 -217 14 -82 30 -145 35 -142 14
8 0 189 -22 284 -5 25 -28 133 -49 240 -46 226 -104 452 -199 770 -11 36 -25
85 -31 110 -12 49 -19 72 -49 165 -10 33 -26 87 -36 120 -10 33 -23 74 -31 90
-7 17 -24 64 -38 105 -89 269 -153 437 -179 470 l-20 25 7 -45z"/>
<path d="M7225 10997 c4 -17 10 -36 14 -42 28 -40 76 -188 120 -370 18 -71 36
-139 41 -150 6 -11 16 -47 24 -80 8 -33 26 -105 40 -160 15 -55 33 -143 41
-195 8 -52 21 -133 29 -180 39 -225 71 -463 82 -610 10 -130 11 -922 1 -987
-6 -42 -5 -52 6 -48 32 13 37 90 37 550 0 420 -2 471 -25 672 -25 214 -28 241
-59 413 -9 47 -18 99 -20 115 -17 124 -31 191 -66 328 -22 85 -44 166 -49 179
-5 13 -21 75 -36 138 -55 233 -133 439 -170 454 -14 5 -16 1 -10 -27z"/>
<path d="M1316 10908 c-5 -28 -26 -158 -33 -212 -4 -27 -2 -41 8 -46 11 -6 14
-31 12 -107 -1 -54 -3 -253 -4 -443 -3 -373 -11 -600 -28 -750 -19 -160 -14
-467 9 -580 5 -25 12 -81 15 -125 3 -44 10 -98 15 -120 5 -22 15 -70 24 -108
8 -37 18 -72 21 -77 3 -5 13 -36 21 -67 8 -32 18 -67 23 -78 4 -11 18 -47 30
-80 24 -64 100 -227 111 -235 3 -3 17 -21 30 -40 13 -19 30 -39 37 -43 7 -4
13 -12 13 -18 0 -5 18 -34 40 -63 22 -29 40 -57 40 -63 0 -6 16 -28 35 -48 53
-59 77 -146 90 -330 4 -44 13 -125 21 -180 8 -55 17 -127 20 -160 3 -33 7 -62
9 -66 2 -3 11 -54 20 -114 9 -59 34 -176 55 -259 21 -83 41 -182 45 -221 3
-38 8 -81 10 -95 2 -14 6 -54 10 -90 8 -81 21 -170 35 -235 6 -27 13 -63 15
-78 5 -40 34 -154 50 -202 7 -22 28 -85 45 -140 17 -55 35 -109 40 -120 5 -11
12 -31 15 -45 4 -14 14 -41 22 -60 8 -19 18 -44 22 -55 7 -18 79 -163 108
-218 21 -38 71 -92 79 -85 7 8 -5 34 -84 179 -84 155 -207 502 -252 709 -17
74 -35 158 -41 185 -21 96 -38 280 -26 292 4 3 7 -3 7 -16 0 -12 9 -54 19 -94
18 -70 55 -233 87 -387 20 -93 62 -253 79 -300 l13 -35 7 26 c4 16 -1 54 -13
95 -22 75 -33 125 -58 249 -9 44 -21 98 -26 120 -5 22 -11 49 -13 60 -10 55
-58 247 -74 300 -37 119 -46 201 -66 590 -6 122 9 331 32 443 13 65 21 82 34
82 10 0 20 -4 23 -8 3 -5 31 -15 62 -22 l56 -14 29 35 c16 19 49 76 75 127 52
105 58 106 92 17 19 -48 42 -71 42 -42 0 8 -10 40 -21 71 -28 71 -22 88 28 80
23 -3 55 0 82 9 24 9 50 13 57 10 19 -7 32 -61 24 -100 -7 -28 -4 -34 30 -60
21 -15 51 -47 67 -70 15 -23 33 -44 39 -47 6 -2 25 16 43 40 17 24 42 50 56
56 37 16 28 44 -12 40 -26 -3 -37 4 -76 50 -44 51 -65 83 -107 160 -28 52 -26
64 23 94 23 15 65 46 92 69 54 45 105 75 129 75 21 0 49 41 36 54 -7 7 -20 5
-39 -7 -36 -21 -54 -21 -91 -2 -28 15 -33 14 -92 -16 -82 -40 -138 -100 -139
-148 0 -20 -2 -46 -5 -58 -3 -20 28 -63 46 -63 4 0 22 -29 39 -64 18 -35 56
-87 86 -116 52 -52 52 -52 38 -82 l-15 -30 -45 44 c-46 45 -77 91 -66 101 9
10 -24 83 -52 113 -18 20 -28 25 -34 16 -7 -12 -113 -52 -137 -52 -8 0 -21 11
-29 24 -14 22 -15 35 -2 128 8 57 13 115 10 129 -3 17 5 41 24 71 26 43 32 47
78 52 52 7 233 23 272 25 17 1 30 19 62 86 38 79 41 92 46 192 3 84 -2 148
-21 283 -37 251 -61 370 -74 370 -11 0 1 -123 26 -271 21 -123 23 -142 30
-255 6 -106 1 -121 -34 -109 -30 9 -41 44 -47 150 -14 265 -60 515 -94 515
-17 0 -20 -31 -6 -68 21 -55 53 -262 60 -387 3 -60 8 -131 11 -156 5 -43 -5
-105 -25 -154 -21 -52 -34 -102 -34 -136 l0 -37 -65 -1 c-36 0 -80 -6 -97 -12
-60 -22 -65 -13 -65 110 0 86 -3 113 -16 125 -8 9 -18 16 -21 16 -3 0 -3 -50
1 -112 8 -155 2 -182 -50 -235 -24 -24 -49 -43 -57 -43 -14 0 -35 62 -51 155
-8 45 -16 61 -29 63 -17 4 -18 -2 -12 -65 5 -44 16 -84 33 -115 24 -43 25 -49
12 -73 -8 -15 -20 -30 -27 -32 -21 -8 -97 34 -139 77 -44 45 -54 49 -54 20 0
-29 66 -90 132 -119 45 -21 64 -37 88 -74 16 -26 30 -52 30 -56 0 -5 14 -22
30 -38 30 -28 38 -48 22 -55 -5 -1 -24 -32 -44 -68 -19 -36 -49 -89 -67 -117
-31 -50 -35 -53 -73 -53 -105 0 -222 135 -318 365 -7 17 -28 77 -47 135 -19
58 -47 141 -63 185 -52 145 -100 302 -124 405 -26 106 -74 262 -84 272 -8 8
-13 7 -18 -5 -8 -22 65 -303 126 -487 11 -30 26 -82 35 -115 9 -33 20 -69 24
-80 25 -59 35 -87 62 -170 17 -49 36 -104 44 -122 8 -17 15 -36 15 -41 0 -18
83 -177 97 -185 7 -4 13 -14 13 -21 0 -8 27 -42 60 -76 l61 -63 -24 -26 c-14
-15 -27 -45 -31 -71 -4 -25 -11 -67 -16 -95 -9 -51 -6 -455 4 -620 l6 -90 -29
126 c-33 143 -83 515 -97 724 -8 122 -26 195 -61 247 -16 23 -42 67 -57 97
-16 30 -47 80 -69 110 -121 163 -158 231 -214 386 -52 143 -57 158 -92 300
-27 109 -35 158 -58 355 -14 121 -8 608 10 870 9 140 17 343 16 450 -1 107 -1
328 0 490 1 162 2 301 1 308 0 21 -19 13 -24 -10z m1536 -2654 c-4 -66 -40
-157 -69 -172 -10 -5 -31 -12 -46 -16 -28 -7 -28 -6 -21 31 11 60 52 167 70
180 12 9 13 13 2 19 -9 6 -4 11 17 15 47 10 50 6 47 -57z m-47 -324 c4 -6 -6
-20 -20 -32 -15 -12 -42 -35 -59 -51 -43 -40 -126 -80 -132 -63 -5 13 81 107
126 138 28 20 75 24 85 8z m-426 -87 c-5 -38 -8 -80 -8 -94 -1 -14 -7 -33 -14
-43 -13 -17 -17 -13 -51 49 l-37 68 42 43 c64 65 77 60 68 -23z"/>
<path d="M4420 10617 c0 -7 15 -42 33 -77 19 -36 80 -155 136 -265 57 -109
110 -211 120 -225 22 -32 65 -125 98 -210 14 -36 28 -74 33 -85 57 -149 99
-289 111 -370 5 -37 12 -72 15 -77 6 -10 5 -267 -1 -348 -2 -25 -4 -52 -4 -62
-1 -9 -26 -33 -58 -54 -53 -35 -57 -36 -70 -19 -7 11 -13 39 -14 64 -1 57 -6
99 -19 151 -5 22 -15 59 -20 83 -14 56 -77 241 -102 297 -42 95 -48 108 -48
113 0 6 -89 196 -158 337 -73 149 -101 195 -113 183 -11 -11 0 -38 88 -223 94
-196 123 -258 123 -265 0 -4 18 -45 40 -91 22 -47 40 -89 40 -94 0 -6 4 -18
10 -28 14 -25 65 -184 89 -277 18 -74 23 -107 36 -240 8 -93 -31 -249 -84
-335 -9 -14 -39 -53 -68 -88 -52 -61 -63 -82 -43 -82 30 0 170 166 170 202 0
8 4 18 8 24 5 5 16 38 26 74 9 36 22 79 27 96 5 17 9 40 9 51 0 17 6 20 39 20
29 0 50 8 78 30 21 17 61 40 90 53 28 12 54 28 57 36 7 18 -6 18 -51 -1 -52
-22 -58 -11 -44 82 19 127 19 201 0 338 -19 133 -56 264 -115 414 -19 46 -34
90 -34 99 0 17 -46 115 -111 232 -51 94 -133 249 -217 410 -54 105 -78 140
-94 140 -4 0 -8 -6 -8 -13z"/>
<path d="M1245 10568 c-8 -29 -20 -81 -26 -118 -5 -36 -14 -85 -19 -110 -20
-100 -25 -222 -25 -600 0 -380 3 -466 21 -520 16 -50 19 50 11 345 -8 261 0
586 18 710 3 17 9 71 15 120 5 50 17 115 25 145 17 65 18 80 5 80 -5 0 -16
-23 -25 -52z"/>
<path d="M6960 10302 c0 -9 10 -49 21 -87 42 -138 102 -351 114 -407 7 -31 15
-61 19 -66 13 -21 143 -542 151 -604 3 -23 10 -70 15 -103 5 -33 12 -100 15
-150 8 -127 9 -128 23 -133 9 -3 12 13 12 60 0 61 -15 251 -25 333 -7 55 -137
560 -158 615 -3 8 -15 53 -27 100 -22 89 -38 141 -50 175 -5 11 -16 52 -25 90
-18 69 -69 195 -79 195 -3 0 -6 -8 -6 -18z"/>
<path d="M4780 10300 c0 -15 43 -83 106 -167 30 -39 54 -76 54 -82 0 -6 5 -11
10 -11 6 0 14 -8 17 -17 4 -10 17 -32 30 -49 13 -17 23 -35 23 -39 0 -5 27
-41 60 -81 33 -40 60 -75 60 -78 0 -3 8 -14 18 -24 22 -23 115 -132 122 -142
7 -12 92 -111 113 -132 9 -10 17 -20 17 -23 0 -2 10 -15 23 -28 12 -13 65 -70
117 -127 52 -57 116 -125 143 -151 26 -27 47 -51 47 -54 0 -8 72 -75 93 -86
40 -22 14 23 -60 103 -42 45 -88 96 -102 112 -14 16 -35 38 -47 50 -16 17
-103 115 -179 202 -82 94 -115 134 -183 216 -44 53 -91 109 -106 125 -14 15
-43 53 -63 83 -21 30 -40 57 -43 60 -3 3 -11 16 -18 30 -15 30 -117 173 -184
259 -45 57 -68 74 -68 51z"/>
<path d="M3170 10186 c0 -15 41 -128 71 -193 10 -23 19 -47 19 -53 0 -6 8 -23
18 -38 10 -15 36 -54 57 -87 21 -33 46 -72 56 -87 11 -15 19 -30 19 -33 0 -4
11 -21 25 -39 14 -18 25 -37 25 -41 0 -5 7 -16 15 -25 8 -9 36 -59 63 -111 27
-52 53 -103 59 -114 15 -26 35 -75 68 -160 14 -38 30 -77 34 -85 7 -14 55
-166 102 -320 10 -36 19 -72 19 -81 0 -9 9 -50 19 -92 27 -103 46 -352 32
-404 -18 -64 -21 -62 92 -58 109 4 159 17 222 58 84 55 87 58 74 73 -17 20
-27 18 -67 -17 -45 -40 -86 -57 -178 -75 -99 -18 -107 -14 -100 50 11 101 -27
384 -72 546 -6 19 -17 60 -26 90 -32 116 -82 257 -107 302 -5 10 -9 23 -9 30
0 22 -104 239 -162 338 -30 52 -87 146 -127 208 -80 127 -123 209 -156 297
-36 93 -58 135 -72 135 -7 0 -13 -6 -13 -14z"/>
<path d="M8960 10099 c0 -20 19 -88 35 -124 15 -34 66 -199 90 -290 9 -33 18
-107 21 -165 2 -58 10 -159 16 -225 13 -127 16 -649 5 -750 -4 -33 -9 -82 -12
-110 -21 -215 -31 -280 -67 -430 -55 -229 -124 -403 -211 -535 -46 -69 -246
-260 -320 -305 -65 -39 -80 -62 -38 -58 31 4 95 48 191 132 176 154 237 242
330 470 144 353 211 1010 160 1571 -6 63 -12 174 -14 245 -3 84 -9 144 -19
170 -8 22 -23 67 -32 100 -9 33 -21 68 -26 77 -5 10 -9 24 -9 31 0 23 -58 156
-80 184 -11 14 -20 20 -20 12z"/>
<path d="M5237 9973 c-8 -7 12 -45 27 -55 42 -25 356 -330 356 -346 0 -6 9
-14 20 -17 11 -3 20 -12 20 -20 0 -7 9 -15 20 -18 11 -3 20 -12 20 -20 0 -9 9
-19 20 -22 11 -3 20 -13 20 -21 0 -8 5 -14 11 -14 23 0 309 -321 309 -348 0
-5 7 -12 15 -16 8 -3 15 -12 15 -21 0 -8 4 -15 8 -15 4 0 24 -21 44 -47 59
-79 69 -90 171 -196 53 -56 97 -105 97 -109 0 -4 -72 -8 -160 -8 -151 0 -164
2 -208 24 -123 64 -167 103 -597 527 -71 70 -105 93 -105 73 0 -6 66 -91 80
-104 19 -17 39 -66 60 -145 13 -49 29 -102 37 -117 7 -15 13 -42 13 -61 0 -18
3 -37 7 -41 10 -9 14 -82 7 -123 -7 -44 -51 -69 -81 -48 -26 18 -40 54 -52
135 -17 107 -44 230 -61 275 -4 11 -14 40 -21 65 -7 25 -16 50 -19 55 -4 6
-20 51 -36 100 -55 175 -163 349 -309 498 -20 21 -39 36 -42 34 -7 -8 23 -59
56 -95 17 -18 31 -37 31 -43 0 -5 4 -9 9 -9 5 0 20 -17 32 -37 13 -21 25 -40
28 -43 19 -17 151 -277 151 -296 0 -8 4 -22 10 -32 13 -22 37 -92 57 -162 8
-30 18 -59 22 -65 13 -16 32 -105 26 -116 -4 -5 -16 -9 -29 -9 -13 0 -43 -10
-67 -23 -24 -13 -90 -38 -146 -56 -57 -18 -105 -36 -108 -41 -2 -4 -34 -16
-70 -25 -64 -18 -86 -35 -42 -35 12 0 83 20 157 44 74 24 149 47 165 50 17 4
37 13 45 20 8 7 30 18 48 26 54 21 78 -12 88 -123 3 -34 12 -74 19 -90 13 -25
12 -29 -11 -43 -24 -16 -32 -48 -15 -58 4 -3 23 8 42 25 21 18 41 28 52 25 27
-7 83 30 97 64 7 16 11 53 10 82 -4 83 -5 80 44 73 57 -9 92 1 75 21 -7 9 -31
14 -65 14 -29 0 -55 4 -59 9 -17 28 -85 243 -79 252 7 11 84 -62 84 -81 0 -5
7 -10 15 -10 9 0 18 -7 22 -16 7 -18 50 -64 61 -64 4 -1 27 -27 52 -60 25 -33
48 -59 52 -60 4 0 17 -11 30 -24 28 -29 100 -79 188 -130 l65 -39 130 0 c72
-1 157 0 190 2 33 2 70 1 83 -3 14 -5 22 -3 22 4 0 9 -204 238 -240 270 -5 5
-110 138 -150 190 -96 127 -181 223 -344 388 -105 107 -216 219 -247 250 -30
32 -71 71 -90 87 -19 17 -59 52 -89 78 -61 54 -84 69 -93 60z"/>
<path d="M10334 9874 c4 -15 22 -50 39 -78 18 -28 62 -109 97 -181 35 -71 79
-153 97 -182 18 -29 33 -56 33 -60 1 -4 9 -18 19 -30 59 -70 28 22 -58 173 -6
10 -29 60 -52 109 -39 85 -85 168 -133 242 -26 41 -51 45 -42 7z"/>
<path d="M3340 9594 c0 -14 9 -72 21 -127 11 -56 22 -113 24 -127 2 -14 8 -45
13 -70 6 -25 14 -76 17 -115 4 -38 9 -83 11 -100 21 -149 11 -512 -15 -538
-16 -16 -19 4 -26 168 -8 177 -7 167 -29 320 -34 233 -40 264 -58 287 l-18 23
0 -25 c0 -14 5 -54 10 -90 5 -36 12 -90 16 -120 3 -30 8 -58 9 -61 5 -7 23
-153 31 -254 11 -130 9 -337 -4 -382 -7 -23 -31 -72 -53 -108 -26 -43 -37 -71
-31 -77 25 -25 132 163 138 242 2 19 3 37 3 40 1 3 13 6 29 5 23 0 27 4 26 25
-1 14 4 73 10 131 25 224 1 524 -64 814 -10 44 -21 99 -25 123 -8 47 -35 60
-35 16z"/>
<path d="M3695 9508 c-4 -10 2 -36 13 -60 11 -24 48 -100 81 -170 34 -70 61
-132 61 -138 0 -6 4 -18 9 -28 5 -9 20 -44 32 -77 12 -33 25 -69 30 -80 35
-88 97 -333 104 -416 6 -62 29 -139 42 -139 16 0 17 39 3 107 -5 26 -15 83
-21 126 -7 43 -16 80 -21 83 -4 3 -6 9 -3 14 5 9 -101 340 -131 409 -9 20 -20
45 -24 56 -29 68 -140 293 -153 310 -14 18 -16 19 -22 3z"/>
<path d="M10035 8987 c-4 -10 -3 -23 3 -29 14 -14 21 3 12 27 -7 19 -8 19 -15
2z"/>
<path d="M10062 8890 c0 -14 2 -19 5 -12 2 6 2 18 0 25 -3 6 -5 1 -5 -13z"/>
<path d="M1109 8863 c-6 -15 -12 -62 -15 -103 -3 -41 -10 -120 -17 -175 -15
-122 -13 -951 2 -1160 6 -77 13 -214 16 -305 9 -235 38 -498 65 -590 5 -19 12
-55 15 -80 8 -65 19 -103 33 -108 17 -5 15 59 -4 138 -37 152 -56 329 -69 650
-3 69 -10 195 -15 280 -5 85 -12 346 -16 580 -5 365 -4 446 11 575 25 217 30
311 16 319 -6 4 -15 -4 -22 -21z"/>
<path d="M1650 8813 c0 -42 85 -394 105 -433 7 -14 16 -41 20 -60 4 -19 13
-48 20 -65 8 -16 18 -46 24 -65 17 -60 48 -144 70 -192 11 -26 21 -51 21 -56
0 -15 30 -69 45 -82 24 -20 19 10 -19 113 -19 51 -48 135 -66 187 -17 52 -35
104 -40 115 -5 11 -14 38 -20 60 -6 22 -15 49 -20 60 -5 11 -11 29 -13 40 -3
11 -15 52 -27 90 -11 39 -29 113 -40 165 -26 127 -34 153 -48 158 -8 2 -12 -9
-12 -35z"/>
<path d="M615 8638 c-26 -83 -118 -496 -130 -587 -2 -18 -7 -41 -9 -50 -3 -9
-12 -72 -21 -141 -17 -143 -24 -190 -58 -390 -14 -80 -28 -176 -32 -215 -4
-38 -8 -72 -10 -75 -2 -3 -6 -48 -10 -100 -10 -131 -28 -241 -40 -240 -6 0
-12 108 -15 292 -3 161 -7 273 -9 248 -2 -25 -6 -56 -8 -70 -11 -59 -9 -389 3
-455 7 -41 15 -204 18 -390 4 -283 8 -337 30 -468 14 -82 30 -156 35 -165 8
-16 31 -135 65 -337 35 -211 87 -437 116 -500 5 -11 18 -47 30 -80 11 -33 24
-69 29 -80 44 -102 61 -144 61 -151 0 -10 112 -237 121 -244 3 -3 18 -27 33
-54 28 -50 75 -112 131 -172 17 -18 42 -47 57 -63 15 -17 31 -31 34 -31 4 0
17 -10 29 -22 88 -88 284 -187 460 -231 135 -35 284 -30 317 10 11 15 10 16
-12 10 -172 -47 -457 33 -675 189 -107 76 -247 226 -299 319 -9 17 -26 46 -38
65 -57 96 -114 223 -221 500 -31 78 -70 213 -87 295 -6 33 -20 101 -30 150
-21 102 -30 155 -36 205 -7 62 -26 164 -41 215 -22 76 -41 167 -54 258 -14
102 -21 660 -9 713 5 21 16 98 25 169 41 336 56 453 65 485 11 42 54 319 80
515 12 87 62 341 101 515 28 123 34 170 20 170 -6 0 -13 -6 -16 -12z"/>
<path d="M5473 8520 c-48 -19 -21 -44 46 -42 55 1 144 -21 224 -54 31 -13 92
-33 135 -43 42 -11 98 -27 123 -36 l46 -16 -14 -72 c-8 -40 -25 -93 -39 -118
-13 -26 -24 -49 -24 -53 0 -10 38 -7 45 4 4 7 12 7 25 0 45 -24 85 -3 56 29
-21 23 -13 44 22 62 36 17 83 60 77 69 -3 5 -34 -7 -70 -26 -56 -29 -66 -32
-72 -18 -3 8 -1 20 6 27 6 6 11 22 11 37 0 42 14 54 55 47 21 -3 48 -16 60
-27 25 -23 41 -13 31 18 -4 12 -24 23 -56 31 -28 7 -50 17 -50 22 0 12 91 11
109 0 19 -12 51 8 51 32 0 20 -7 20 -170 -8 -61 -10 -81 -10 -106 0 -17 7 -51
16 -75 20 -24 4 -53 12 -64 18 -11 6 -38 17 -60 23 -22 6 -53 17 -70 23 -120
43 -220 64 -252 51z m587 -364 c0 -8 -4 -18 -10 -21 -5 -3 -10 3 -10 14 0 12
5 21 10 21 6 0 10 -6 10 -14z"/>
<path d="M5845 8486 c-11 -8 -17 -17 -14 -21 10 -9 101 8 103 20 2 16 -67 17
-89 1z"/>
<path d="M5360 8467 c0 -9 -12 -25 -27 -37 -23 -18 -37 -21 -83 -17 -30 3 -67
8 -81 12 -20 5 -35 -1 -75 -34 -27 -23 -73 -59 -101 -81 -47 -36 -69 -70 -45
-70 14 0 96 57 142 99 25 23 50 41 57 41 24 0 23 -20 -5 -52 -16 -18 -38 -47
-50 -65 -30 -43 -132 -245 -132 -261 0 -23 31 -8 47 23 30 56 37 70 62 120 27
56 126 211 140 219 5 3 46 8 92 12 83 6 84 6 122 -26 34 -29 37 -35 31 -68 -4
-21 -13 -41 -20 -45 -26 -15 -16 -37 16 -37 23 0 30 4 30 20 0 23 7 24 84 9
58 -12 85 -6 126 27 8 7 39 16 67 20 62 8 60 11 67 -97 l6 -77 -70 -71 c-46
-48 -77 -71 -92 -71 -13 0 -34 -7 -47 -16 -32 -23 -84 -12 -134 28 -23 19 -54
39 -70 46 -43 18 -84 92 -91 165 -14 124 -44 98 -33 -28 4 -53 11 -72 41 -113
36 -50 41 -53 239 -147 34 -17 64 -39 74 -56 10 -16 21 -29 25 -29 15 0 29 42
23 71 -6 24 -2 33 24 55 17 14 31 31 31 38 0 19 63 66 89 66 6 0 11 -5 11 -12
0 -18 50 -78 66 -78 22 0 17 24 -17 79 -28 45 -32 61 -36 143 -2 51 -9 103
-15 114 -14 30 -54 47 -78 34 -10 -5 -32 -10 -49 -10 -20 0 -31 -5 -31 -14 0
-13 -23 -24 -65 -31 -11 -2 -37 -6 -59 -10 -34 -7 -41 -5 -57 16 -10 13 -19
30 -19 36 0 20 49 27 99 14 25 -7 57 -14 71 -17 23 -5 24 -4 5 7 -11 6 -34 24
-50 40 l-30 28 -53 -15 c-52 -15 -53 -15 -97 10 -38 22 -44 31 -47 63 -3 35
-28 61 -28 30z"/>
<path d="M5658 8175 c4 -30 1 -36 -22 -45 -18 -6 -42 -6 -74 2 -42 9 -52 8
-75 -7 -37 -24 -37 -50 1 -40 41 12 129 10 144 -3 37 -30 91 81 56 116 -22 22
-34 13 -30 -23z"/>
<path d="M2977 8053 c-15 -14 -5 -43 21 -61 30 -21 142 -62 170 -62 35 0 161
-49 229 -88 44 -26 91 -65 128 -108 89 -100 103 -114 115 -114 31 0 1 48 -82
132 -80 80 -107 100 -188 139 -52 26 -120 52 -150 58 -72 16 -182 52 -197 64
-7 5 -13 18 -13 28 0 18 -20 26 -33 12z"/>
<path d="M3010 7946 c0 -8 8 -21 18 -28 22 -16 72 -82 72 -95 0 -12 -44 -33
-69 -33 -10 0 -28 11 -41 25 -12 13 -26 22 -30 20 -15 -10 -2 -73 24 -113 15
-24 30 -51 33 -60 8 -22 80 -120 113 -152 14 -14 37 -33 52 -43 26 -16 28 -16
38 2 16 31 12 41 -23 56 -44 18 -78 54 -137 144 -36 56 -46 78 -38 88 13 16
58 14 81 -5 15 -14 20 -13 42 8 30 28 31 41 5 65 -11 10 -20 23 -20 29 -1 17
-89 106 -106 106 -7 0 -14 -6 -14 -14z"/>
<path d="M5316 7889 c-24 -19 -27 -39 -6 -39 12 0 45 49 38 55 -3 3 -17 -4
-32 -16z"/>
<path d="M3180 7880 c0 -5 12 -17 26 -26 19 -13 24 -23 19 -41 -3 -12 -1 -23
4 -23 4 0 11 -23 13 -50 6 -56 42 -106 82 -112 23 -4 66 11 66 23 0 17 52 68
73 71 17 3 7 11 -43 34 -36 18 -76 34 -90 38 -41 9 -90 44 -100 71 -9 24 -50
37 -50 15z m170 -140 c-9 -6 -9 -12 1 -28 10 -17 10 -23 0 -36 -33 -39 -80 -2
-73 57 l4 34 40 -10 c23 -6 35 -13 28 -17z m48 -18 c2 -7 -3 -12 -12 -12 -9 0
-16 7 -16 16 0 17 22 14 28 -4z"/>
<path d="M7082 7860 c0 -14 2 -19 5 -12 2 6 2 18 0 25 -3 6 -5 1 -5 -13z"/>
<path d="M7089 7815 c-2 -14 3 -80 22 -329 11 -141 13 -330 4 -367 -3 -13 -7
-55 -9 -94 -10 -163 -62 -338 -149 -507 -83 -159 -117 -222 -133 -239 -8 -8
-14 -19 -14 -23 0 -7 -6 -16 -68 -108 -18 -25 -32 -50 -32 -55 0 -4 -22 -36
-48 -70 -26 -34 -65 -87 -87 -119 -22 -31 -68 -92 -102 -134 -59 -73 -74 -100
-55 -100 28 0 362 430 362 466 0 4 15 27 34 53 35 49 71 110 170 296 53 98
104 241 131 370 10 44 21 91 25 105 27 92 17 578 -15 764 -12 68 -33 120 -36
91z"/>
<path d="M3504 7681 c3 -18 6 -55 6 -82 0 -51 12 -63 30 -29 21 40 15 89 -15
118 l-27 27 6 -34z"/>
<path d="M1445 7484 c-8 -20 -15 -56 -15 -79 0 -43 -5 -71 -41 -240 -11 -49
-22 -110 -26 -135 -10 -67 -12 -464 -3 -545 5 -38 11 -108 14 -155 7 -98 12
-138 25 -200 9 -39 17 -93 27 -165 11 -90 120 -481 159 -570 72 -170 73 -171
55 -160 -9 6 -50 79 -142 255 -51 98 -124 280 -172 430 -35 108 -42 121 -52
97 -8 -21 25 -141 78 -287 51 -138 57 -151 100 -229 11 -20 39 -70 61 -111 22
-41 52 -93 67 -115 15 -22 36 -65 46 -95 24 -70 23 -69 43 -44 17 21 17 21 35
-17 25 -50 75 -111 87 -103 5 3 -7 33 -27 67 -79 136 -169 359 -214 527 -17
63 -35 131 -40 150 -15 50 -40 176 -50 240 -4 30 -15 93 -23 140 -56 311 -64
850 -16 1025 11 43 27 112 35 160 3 17 8 37 11 45 10 31 13 139 4 145 -6 3
-17 -11 -26 -31z"/>
<path d="M3272 7494 c-8 -4 -1 -14 20 -28 18 -12 34 -31 36 -43 4 -28 37 -57
57 -50 24 10 19 70 -9 96 -23 22 -80 35 -104 25z"/>
<path d="M6996 7463 c-6 -22 -21 -107 -35 -194 -14 -85 -14 -179 -1 -179 14 0
17 13 24 80 3 30 12 93 21 140 8 47 15 102 15 122 0 40 -15 60 -24 31z"/>
<path d="M3035 7364 c-18 -18 -17 -65 2 -71 15 -5 46 54 39 73 -7 18 -21 18
-41 -2z"/>
<path d="M1490 7213 c-1 -21 -3 -78 -7 -128 -3 -49 -6 -110 -6 -135 0 -46 13
-295 18 -340 2 -14 6 -68 10 -120 3 -52 10 -111 15 -130 4 -19 11 -57 15 -85
8 -69 42 -242 66 -346 11 -47 22 -97 23 -112 2 -14 8 -39 14 -54 6 -15 23 -73
37 -128 24 -94 45 -158 66 -197 5 -10 9 -24 9 -31 0 -21 37 -52 42 -35 3 7 1
20 -3 28 -4 8 -13 35 -20 60 -7 25 -16 50 -19 55 -4 6 -20 57 -35 114 -15 58
-31 115 -36 128 -17 44 -97 438 -120 593 -25 161 -50 593 -42 727 5 107 -1
173 -17 173 -6 0 -10 -17 -10 -37z"/>
<path d="M2154 7154 c-6 -32 0 -190 11 -274 3 -19 7 -60 10 -90 7 -85 15 -140
25 -195 5 -27 11 -68 14 -90 2 -22 7 -53 11 -70 3 -16 10 -48 15 -70 5 -22 14
-67 20 -100 7 -33 16 -64 20 -70 4 -5 13 -35 19 -65 7 -30 17 -66 22 -80 5
-14 11 -41 13 -60 2 -19 14 -87 25 -150 12 -63 24 -133 27 -155 7 -53 50 -219
73 -279 10 -27 26 -53 36 -58 14 -8 16 -7 12 8 -55 189 -74 269 -91 384 -32
215 -78 428 -107 495 -7 18 -38 173 -53 265 -3 19 -10 62 -16 95 -29 170 -50
411 -50 573 0 37 -28 26 -36 -14z"/>
<path d="M819 7032 c-4 -96 3 -284 20 -522 7 -102 6 -131 -6 -160 -38 -93 -51
-339 -28 -535 9 -77 19 -158 21 -180 3 -22 9 -56 14 -75 4 -19 11 -60 15 -90
4 -30 15 -89 25 -130 10 -41 31 -127 46 -190 41 -177 126 -477 154 -545 18
-43 25 -62 51 -130 13 -33 27 -64 31 -69 4 -6 8 -18 8 -28 0 -10 3 -18 8 -18
4 0 16 -17 27 -37 29 -57 138 -202 152 -203 6 0 14 -8 18 -17 5 -17 47 -48
133 -100 20 -13 71 -34 112 -48 65 -22 95 -26 215 -27 143 -2 216 10 282 46
44 24 -24 24 -118 0 -33 -8 -105 -14 -172 -14 -101 0 -125 3 -196 28 -237 84
-402 295 -525 674 -52 157 -96 306 -111 373 -9 39 -23 95 -30 125 -19 70 -54
232 -65 290 -4 25 -13 72 -19 105 -42 228 -58 440 -46 626 6 105 16 151 29
139 6 -7 35 -176 42 -243 3 -29 12 -92 20 -142 9 -49 17 -110 20 -135 3 -25
20 -115 39 -200 18 -85 36 -171 39 -191 9 -54 36 -103 49 -90 7 7 -2 61 -31
178 -53 219 -62 265 -61 316 1 51 3 45 54 -118 20 -66 43 -133 50 -150 7 -16
23 -55 35 -85 34 -86 43 -106 111 -245 35 -71 83 -161 106 -200 24 -38 43 -74
43 -81 0 -7 7 -14 15 -18 8 -3 15 -10 15 -16 0 -6 11 -26 25 -44 14 -18 25
-38 25 -43 0 -6 7 -13 15 -17 8 -3 15 -12 15 -21 0 -8 3 -15 8 -15 4 0 16 -17
27 -37 11 -21 25 -42 32 -46 7 -4 13 -12 13 -17 0 -5 14 -24 30 -42 17 -18 30
-38 30 -45 0 -7 5 -13 10 -13 6 0 15 -11 20 -25 5 -14 14 -25 20 -25 5 0 10
-6 10 -12 0 -13 29 -47 121 -145 27 -29 49 -57 49 -63 0 -5 6 -10 14 -10 8 0
18 -9 21 -20 3 -11 13 -20 22 -20 8 0 17 -9 20 -20 3 -11 8 -20 12 -20 4 0 25
-17 46 -38 22 -21 70 -61 107 -90 37 -29 68 -56 70 -61 3 -9 121 -70 183 -94
22 -9 67 -19 100 -23 46 -5 73 -16 117 -45 31 -22 69 -44 83 -49 14 -5 25 -13
25 -18 0 -24 249 -157 415 -222 11 -4 36 -15 55 -23 95 -40 314 -102 391 -110
20 -2 40 -6 45 -9 5 -4 65 -9 134 -13 221 -12 339 35 399 161 26 53 33 140 14
155 -20 17 -25 6 -28 -52 -7 -151 -119 -229 -330 -229 -149 0 -451 61 -570
115 -16 7 -61 25 -100 39 -152 57 -446 221 -345 192 87 -25 178 -39 205 -32
27 7 28 9 10 16 -11 4 -72 15 -135 25 -120 17 -190 43 -262 96 -22 15 -56 33
-76 40 -20 6 -46 19 -57 29 -11 9 -42 32 -70 50 -54 37 -130 103 -214 190 -59
61 -161 191 -161 206 0 6 -13 28 -29 50 -73 100 -197 350 -256 519 -16 44 -34
91 -42 105 l-13 25 0 -30 c0 -54 61 -250 93 -298 9 -14 17 -30 17 -36 0 -17
101 -201 136 -248 13 -17 24 -35 24 -38 0 -3 11 -21 25 -39 14 -18 25 -36 25
-40 0 -14 114 -161 159 -206 75 -73 192 -166 249 -195 63 -33 57 -52 -9 -32
-168 51 -405 262 -681 608 -7 9 -17 23 -23 31 -5 9 -38 56 -73 104 -34 49 -67
96 -72 104 -5 8 -27 40 -48 70 -88 126 -211 353 -314 580 -56 122 -169 441
-193 540 -51 219 -68 306 -80 410 -28 239 -35 339 -35 466 0 72 -3 145 -6 162
-8 41 -34 51 -35 14z"/>
<path d="M2625 6484 c-8 -20 -15 -42 -15 -48 0 -6 -9 -49 -20 -96 -33 -145
-45 -230 -57 -415 -13 -205 -4 -619 16 -715 5 -25 14 -69 20 -99 11 -52 54
-194 71 -236 5 -11 14 -38 20 -60 7 -22 18 -54 26 -72 8 -17 14 -36 14 -42 0
-10 6 -24 49 -123 12 -26 21 -51 21 -54 0 -14 74 -155 87 -165 7 -6 13 -18 13
-25 0 -8 5 -14 10 -14 6 0 10 -5 10 -11 0 -14 94 -133 137 -175 18 -17 33 -36
33 -43 0 -6 5 -11 11 -11 7 0 26 -15 44 -34 43 -46 152 -136 164 -136 5 0 11
-4 13 -8 11 -26 241 -138 260 -126 20 12 2 26 -89 69 -85 40 -214 125 -264
174 -9 9 -48 46 -85 82 -169 163 -263 311 -354 559 -23 63 -45 124 -49 135 -5
11 -14 38 -20 60 -7 22 -16 49 -20 60 -39 97 -86 303 -95 415 -15 191 -17 342
-7 500 7 96 14 206 16 244 5 81 37 261 64 361 10 39 17 73 14 78 -9 16 -23 5
-38 -29z"/>
<path d="M8330 6469 c-95 -26 -196 -62 -214 -76 -20 -14 -18 -15 25 -9 25 3
86 17 135 32 144 43 293 40 504 -12 36 -9 70 -20 75 -24 6 -4 22 -10 37 -14
15 -3 57 -20 95 -37 88 -40 293 -137 316 -149 19 -11 27 -15 117 -60 144 -73
200 -104 300 -170 58 -38 143 -93 189 -122 99 -62 161 -115 181 -154 8 -16 27
-46 41 -66 15 -21 38 -62 52 -93 15 -30 38 -79 52 -109 14 -29 25 -58 25 -65
0 -6 4 -19 10 -29 5 -9 30 -71 56 -137 25 -66 54 -138 64 -160 26 -57 157
-362 209 -490 5 -11 18 -40 29 -65 32 -69 123 -273 132 -295 4 -11 17 -40 28
-65 10 -25 25 -63 31 -85 7 -22 16 -49 21 -60 5 -11 33 -92 61 -180 29 -88 55
-164 59 -170 4 -5 11 -25 15 -43 4 -18 13 -45 21 -60 8 -15 14 -34 14 -43 0
-8 4 -19 8 -25 5 -5 14 -29 21 -54 7 -25 21 -72 31 -105 31 -103 37 -163 45
-442 3 -111 7 -214 10 -230 2 -15 7 -71 10 -123 4 -85 16 -200 30 -285 5 -30
11 -99 21 -210 7 -89 13 -110 27 -96 13 13 11 183 -3 281 -24 156 -30 200 -38
290 -5 52 -10 163 -11 245 -2 226 -20 461 -41 545 -11 41 -37 127 -59 190 -21
63 -81 236 -131 385 -51 148 -100 286 -110 305 -9 19 -27 64 -39 100 -12 36
-27 76 -33 90 -5 14 -16 39 -23 55 -28 69 -33 82 -46 125 -7 25 -26 69 -41 99
-15 29 -28 57 -28 63 0 17 -40 98 -49 98 -8 0 -23 32 -25 57 -1 6 -13 23 -28
37 -14 15 -29 38 -32 52 -4 13 -17 48 -30 77 -13 28 -35 84 -49 122 -48 134
-141 360 -174 422 -18 35 -58 101 -88 148 l-55 86 -203 133 c-164 108 -446
276 -464 276 -2 0 -41 18 -86 39 -45 22 -144 69 -220 105 -76 36 -145 66 -152
66 -8 0 -16 4 -19 9 -3 4 -27 14 -53 21 -27 7 -62 18 -79 26 -17 8 -62 19
-100 25 -92 15 -330 21 -374 8z"/>
<path d="M2900 6250 c0 -5 5 -10 11 -10 5 0 7 5 4 10 -3 6 -8 10 -11 10 -2 0
-4 -4 -4 -10z"/>
<path d="M2918 6214 c-3 -3 -2 -19 3 -37 5 -18 23 -90 40 -162 17 -71 35 -134
38 -140 4 -5 13 -30 20 -55 6 -25 16 -54 21 -65 36 -82 70 -165 70 -174 0 -6
4 -19 9 -29 5 -9 19 -44 31 -77 12 -33 33 -84 46 -113 13 -29 24 -56 24 -60 1
-13 166 -339 188 -370 12 -16 22 -35 22 -40 0 -6 4 -12 8 -14 5 -1 24 -29 43
-62 67 -115 74 -126 99 -154 14 -16 38 -47 54 -70 15 -23 38 -44 50 -48 11 -3
50 -25 86 -48 94 -62 135 -81 230 -111 47 -15 94 -30 106 -35 17 -7 44 0 63
16 2 2 -2 10 -9 19 -9 11 -11 34 -6 83 7 75 -7 235 -29 328 -8 33 -17 82 -20
110 -6 50 -10 67 -60 229 -29 93 -77 199 -95 210 -24 15 -3 -63 50 -180 11
-25 50 -170 57 -210 2 -16 13 -73 24 -126 11 -53 22 -109 24 -125 3 -16 8 -41
11 -56 9 -39 -16 -45 -85 -24 -94 30 -132 49 -200 98 -70 51 -155 163 -258
337 -57 97 -173 332 -173 350 0 6 -4 19 -9 29 -5 9 -14 35 -20 57 -7 22 -16
49 -21 60 -5 11 -16 58 -25 105 -15 83 -28 111 -41 97 -6 -6 5 -112 19 -182 5
-22 40 -127 58 -172 6 -15 15 -37 19 -48 4 -11 24 -55 44 -98 20 -43 36 -80
36 -82 0 -3 16 -29 35 -59 19 -30 35 -57 35 -60 0 -10 124 -202 159 -246 69
-87 141 -146 221 -183 48 -21 142 -47 174 -47 41 0 50 -45 31 -146 -5 -27 -11
-34 -28 -34 -95 1 -351 139 -437 237 -124 141 -364 589 -478 894 -39 101 -75
198 -82 214 -24 58 -29 71 -53 145 -14 42 -35 112 -46 157 -20 75 -55 173 -64
173 -2 0 -6 -3 -9 -6z"/>
<path d="M11978 5923 c-23 -27 -48 -79 -48 -102 0 -11 -4 -23 -10 -26 -27 -16
-1 -287 31 -319 19 -20 21 6 7 101 -21 143 -17 191 28 287 25 54 30 76 16 76
-5 0 -16 -8 -24 -17z"/>
<path d="M11246 5771 c-3 -5 17 -19 45 -32 102 -47 416 -207 504 -256 50 -28
128 -71 175 -96 47 -25 127 -80 179 -122 52 -41 100 -75 107 -75 6 0 39 -27
73 -59 57 -55 61 -62 61 -103 0 -47 -17 -108 -29 -108 -8 0 -23 32 -53 110
-21 55 -62 120 -75 120 -7 0 -13 -2 -13 -5 0 -3 28 -63 62 -133 57 -117 62
-133 63 -197 1 -38 -3 -88 -9 -112 -18 -81 16 -144 99 -183 22 -10 47 -25 55
-32 16 -13 80 -113 80 -125 0 -3 22 -52 49 -107 29 -61 49 -116 50 -138 0 -35
47 -149 63 -156 4 -2 8 -10 8 -17 0 -7 18 -49 39 -92 22 -43 47 -96 56 -118
32 -75 109 -240 129 -274 20 -33 42 -44 65 -31 11 5 36 10 55 10 30 0 36 4 36
21 0 18 -5 20 -57 17 l-56 -3 -26 45 c-15 25 -35 67 -46 95 -10 27 -31 73 -47
103 -15 30 -28 58 -28 64 0 5 -10 30 -22 56 -11 26 -25 61 -29 77 -29 106 -47
151 -139 338 -80 163 -114 221 -155 265 -28 31 -55 68 -58 82 -8 31 -33 67
-42 58 -4 -3 1 -20 9 -37 21 -39 20 -51 -2 -51 -23 0 -52 50 -52 90 0 27 3 31
19 27 17 -4 18 -2 4 42 -17 56 -11 127 17 212 41 126 28 154 -123 270 -161
124 -212 161 -227 167 -8 3 -35 21 -59 39 -24 18 -53 33 -64 33 -10 0 -56 22
-101 48 -119 72 -194 112 -356 191 -80 40 -153 76 -162 81 -22 12 -65 13 -72
1z m1505 -1749 c8 -24 8 -37 0 -45 -7 -7 -11 -6 -14 4 -2 8 -10 30 -16 49 -7
19 -15 46 -18 60 -5 24 -4 24 16 -5 12 -16 26 -45 32 -63z"/>
<path d="M5585 5681 c-38 -9 -68 -26 -85 -46 -22 -26 -4 -28 57 -6 33 12 75
21 94 21 40 0 50 6 42 26 -6 15 -56 17 -108 5z"/>
<path d="M6733 5629 c-235 -213 -453 -307 -644 -279 -41 6 -111 18 -156 26
-61 11 -88 12 -103 4 -32 -17 -24 -27 33 -34 28 -4 79 -11 112 -16 114 -19
226 -23 284 -11 175 38 316 116 459 255 121 117 133 162 15 55z"/>
<path d="M4873 5609 c-18 -5 -35 -14 -38 -19 -11 -17 22 -22 60 -10 49 16 74
8 142 -48 73 -62 226 -144 323 -175 142 -46 245 -68 300 -65 65 4 83 28 21 28
-70 0 -272 50 -379 93 -73 30 -121 59 -240 145 -91 65 -116 72 -189 51z"/>
<path d="M4453 5544 c-14 -36 45 -92 91 -86 11 1 44 -4 71 -13 62 -18 98 -19
200 0 44 8 103 14 132 15 53 0 77 15 52 32 -16 10 -108 4 -189 -12 -30 -6 -70
-14 -88 -16 -48 -7 -192 39 -222 71 -27 29 -38 31 -47 9z"/>
<path d="M11860 5337 c0 -8 12 -23 28 -33 59 -41 164 -158 227 -255 40 -59 71
-97 76 -92 17 17 -53 138 -138 240 -82 98 -193 178 -193 140z"/>
<path d="M5198 5243 c-16 -8 -28 -20 -28 -27 0 -8 -6 -16 -14 -19 -16 -6 -134
6 -230 23 -40 7 -62 8 -69 1 -16 -16 -6 -21 89 -41 170 -35 244 -37 244 -6 0
7 14 25 30 41 47 45 35 59 -22 28z"/>
<path d="M4083 5185 c4 -16 70 -169 117 -270 13 -28 48 -164 54 -211 3 -21 8
-87 12 -146 7 -127 -3 -173 -43 -183 l-26 -6 22 -15 22 -16 -41 -45 c-23 -24
-40 -47 -37 -49 10 -10 57 17 78 46 17 22 39 35 79 46 30 8 93 30 140 47 102
39 142 76 195 181 35 69 37 79 38 177 2 88 0 104 -14 107 -14 2 -16 -5 -13
-40 5 -54 -22 -191 -48 -241 -42 -83 -103 -127 -243 -176 -75 -27 -100 -27
-89 -3 25 53 10 391 -18 408 -4 3 -6 9 -3 14 8 14 -39 149 -86 243 -43 87
-106 174 -96 132z"/>
<path d="M10907 5153 c-20 -19 9 -33 108 -53 83 -16 251 -58 305 -75 124 -40
357 -118 375 -125 11 -5 40 -15 65 -21 25 -7 50 -16 55 -19 20 -15 113 -33
130 -26 28 10 8 22 -85 49 -103 31 -290 94 -345 117 -22 10 -76 28 -120 40
-44 12 -89 26 -100 30 -21 9 -152 41 -245 60 -30 7 -71 16 -91 21 -43 11 -44
11 -52 2z"/>
<path d="M10470 5008 c0 -7 4 -19 9 -27 11 -17 23 1 15 23 -7 19 -24 21 -24 4z"/>
<path d="M10975 4971 c-6 -11 33 -98 59 -131 7 -8 23 -37 36 -65 14 -27 27
-52 31 -55 3 -3 18 -27 33 -55 36 -64 67 -98 79 -86 10 10 0 29 -122 241 -77
135 -104 169 -116 151z"/>
<path d="M10502 4925 c0 -16 2 -22 5 -12 2 9 2 23 0 30 -3 6 -5 -1 -5 -18z"/>
<path d="M2900 4494 c0 -18 42 -77 88 -123 108 -108 236 -180 381 -216 134
-33 272 1 320 79 29 47 31 151 4 250 -3 12 -8 15 -15 8 -6 -6 -10 -54 -9 -110
2 -120 -8 -145 -66 -173 -103 -50 -246 -32 -402 49 -73 37 -169 111 -227 174
-49 52 -74 73 -74 62z"/>
<path d="M8150 1920 c-53 -34 -129 -93 -176 -135 -18 -16 -52 -46 -76 -65 -74
-61 -251 -213 -298 -254 -25 -23 -61 -55 -80 -71 -363 -316 -484 -442 -559
-580 -15 -27 -120 -138 -274 -287 -336 -327 -457 -447 -490 -488 -26 -33 -27
-35 -8 -38 24 -4 78 34 86 59 3 10 81 89 173 175 92 87 235 227 317 311 83 84
153 153 157 153 4 0 26 -20 48 -44 22 -24 54 -49 71 -56 27 -11 28 -15 14 -23
-15 -8 -11 -13 25 -34 22 -14 56 -39 74 -56 46 -45 113 -97 125 -97 23 0 10
30 -22 52 -51 35 -127 104 -127 116 0 19 188 -36 200 -59 4 -8 10 -38 13 -67
5 -41 3 -52 -8 -52 -22 0 -19 -11 16 -63 69 -105 200 -195 389 -267 19 -7 44
-22 56 -32 21 -18 64 -25 64 -10 0 18 -40 42 -170 102 -147 68 -182 91 -248
160 -54 55 -73 90 -65 119 3 12 0 49 -7 81 -10 48 -10 65 0 90 11 27 10 34
-13 68 -19 28 -27 56 -32 115 -8 96 3 117 81 152 31 14 53 29 49 35 -9 15 -24
12 -54 -10 -16 -10 -46 -24 -67 -29 -21 -5 -73 -21 -114 -35 -41 -14 -80 -26
-86 -26 -7 0 -21 -11 -31 -23 -25 -33 -55 -47 -97 -47 -49 0 -50 31 -1 54 26
13 35 23 35 41 0 18 5 25 20 25 28 0 87 40 100 68 12 26 6 25 -47 -15 -19 -14
-34 -19 -38 -13 -8 13 85 109 197 202 48 40 158 137 245 215 292 262 385 332
548 417 112 58 278 161 283 175 10 29 -52 3 -171 -73 -153 -97 -203 -119 -141
-62 21 20 57 49 79 64 22 15 46 33 53 40 7 6 17 12 22 12 5 0 14 9 20 20 16
29 -6 26 -60 -10z m-872 -1103 c16 -19 27 -133 13 -142 -13 -7 -201 80 -201
94 0 5 19 16 43 25 112 40 129 43 145 23z m-99 -132 c51 -25 97 -45 104 -45
18 0 57 -42 57 -62 0 -30 -28 -32 -114 -9 -120 34 -134 40 -211 90 -38 25 -72
47 -74 48 -1 1 0 6 4 12 3 6 37 11 74 11 60 0 78 -5 160 -45z"/>
<path d="M10983 1838 c-22 -24 -40 -52 -142 -212 -35 -56 -94 -147 -130 -204
-36 -56 -80 -128 -98 -160 -46 -81 -229 -452 -238 -482 -4 -13 -23 -54 -41
-91 -19 -37 -34 -70 -34 -74 0 -3 -19 -45 -41 -93 -23 -48 -60 -125 -81 -172
-22 -47 -54 -112 -70 -145 -29 -56 -78 -181 -78 -197 0 -5 9 -8 19 -8 12 0 21
10 26 28 3 15 48 115 99 222 51 107 115 242 141 300 26 58 61 133 76 168 16
35 29 66 29 69 0 11 200 408 241 478 22 39 73 122 113 185 40 63 99 158 131
210 33 52 66 104 74 115 30 38 43 67 34 76 -6 6 -18 0 -30 -13z"/>
<path d="M8562 1654 c-30 -13 6 -24 79 -24 60 0 80 3 77 13 -5 12 -130 21
-156 11z"/>
<path d="M7985 1556 c-27 -8 -63 -17 -79 -20 -45 -11 -16 -29 36 -23 86 12
123 20 136 29 36 29 -8 36 -93 14z"/>
<path d="M8865 1557 c25 -19 18 -22 -85 -35 -160 -21 -287 -45 -335 -63 l-50
-19 88 5 c49 3 130 14 180 25 156 32 270 43 329 31 60 -13 342 -149 387 -186
29 -25 71 -34 71 -16 0 19 -68 61 -225 139 -160 80 -251 114 -335 127 -42 6
-44 6 -25 -8z"/>
<path d="M8925 1390 c-51 -11 -148 -26 -250 -41 -79 -11 -208 -31 -315 -49
-30 -6 -71 -15 -90 -20 -19 -6 -55 -15 -80 -19 -66 -13 -180 -45 -220 -63 -19
-9 -62 -26 -95 -38 -125 -46 -185 -74 -176 -83 10 -10 58 3 126 33 22 10 58
24 80 30 22 7 45 16 50 20 10 7 85 31 205 64 65 17 289 59 410 76 47 7 137 20
200 30 130 21 269 39 319 43 19 1 36 8 39 15 4 14 -135 15 -203 2z"/>
<path d="M9318 1295 c-3 -3 -56 -15 -117 -25 -99 -17 -170 -26 -396 -45 -74
-7 -139 -20 -280 -55 -60 -15 -122 -30 -137 -34 -16 -4 -28 -11 -28 -16 0 -13
52 -13 99 0 197 51 265 63 496 85 244 23 434 62 419 86 -6 10 -47 12 -56 4z"/>
<path d="M8180 1078 c-25 -5 -103 -17 -175 -28 -414 -59 -407 -58 -400 -70 10
-16 165 -11 225 6 30 9 71 18 90 20 96 12 189 26 225 34 22 5 52 11 66 14 15
3 29 13 33 21 6 17 1 17 -64 3z"/>
<path d="M9130 1064 c-48 -7 -175 -25 -242 -35 -243 -33 -261 -37 -253 -49 12
-19 88 -13 400 35 150 23 163 26 176 41 9 12 6 14 -22 13 -19 -1 -45 -3 -59
-5z"/>
<path d="M7198 1018 c-30 -21 -36 -38 -15 -38 17 0 50 36 46 49 -2 5 -16 1
-31 -11z"/>
<path d="M6982 41 c-7 -4 -70 -7 -140 -5 -136 3 -195 -3 -170 -17 20 -11 388
-21 388 -11 0 14 -35 42 -51 42 -8 0 -20 -4 -27 -9z"/>
<path d="M6490 31 c0 -12 41 -31 68 -31 21 0 48 17 41 25 -13 12 -109 18 -109
6z"/>
<path d="M6620 10 c0 -5 5 -10 11 -10 5 0 7 5 4 10 -3 6 -8 10 -11 10 -2 0 -4
-4 -4 -10z"/>
</g>
</svg>
